<svg width="18" height="18" viewBox="0 0 18 18" fill="none" xmlns="http://www.w3.org/2000/svg">
<path fill-rule="evenodd" clip-rule="evenodd" d="M16.116 7.6875C16.0977 7.55167 16.0777 7.41601 16.0561 7.28054L16.008 6.97946C15.8391 5.92095 14.9261 5.14209 13.8541 5.14209H7.76642C7.54064 4.33887 6.8028 3.75 5.92742 3.75H4.20875C3.09662 3.75 2.15988 4.58099 2.02728 5.68517L1.82292 7.38701C1.60343 9.21478 1.66008 11.0652 1.99096 12.8761C2.16797 13.8449 2.97822 14.5711 3.96057 14.6414L5.09607 14.7226C7.69536 14.9086 10.3046 14.9086 12.9039 14.7226L14.1323 14.6347C14.7387 14.5913 15.2757 14.2833 15.6216 13.8195C16.0818 13.378 16.444 12.8388 16.6784 12.2362L17.6154 9.82659C18.0157 8.79737 17.2565 7.6875 16.1522 7.6875H16.116ZM4.20875 4.875C3.66606 4.875 3.20896 5.2805 3.14426 5.81931L2.9399 7.52114C2.73386 9.23692 2.78703 10.9739 3.09764 12.6739C3.1824 13.1378 3.57042 13.4856 4.04085 13.5192L4.10535 13.5239L5.85441 9.00545C6.1619 8.21111 6.92606 7.6875 7.77783 7.6875H14.9801C14.969 7.61089 14.9574 7.53434 14.9452 7.45786L14.8971 7.15678C14.8153 6.64423 14.3732 6.26709 13.8541 6.26709L7.31951 6.26709C6.98426 6.26709 6.71249 5.99532 6.71249 5.66007C6.71249 5.22649 6.361 4.875 5.92742 4.875H4.20875Z" fill="white"/>
</svg>
