<svg width="18" height="18" viewBox="0 0 18 18" fill="none" xmlns="http://www.w3.org/2000/svg">
<path d="M6.80099 2.42102C5.77837 2.30672 4.72158 2.30672 3.69897 2.42102C3.04108 2.49454 2.5091 3.01261 2.43152 3.67594C2.3092 4.72175 2.3092 5.77826 2.43152 6.82407C2.5091 7.4874 3.04108 8.00546 3.69897 8.07899C4.72159 8.19328 5.77837 8.19328 6.80099 8.07899C7.45887 8.00546 7.99085 7.4874 8.06843 6.82407C8.19075 5.77826 8.19075 4.72175 8.06843 3.67594C7.99085 3.01261 7.45887 2.49454 6.80099 2.42102Z" fill="white"/>
<path d="M6.80099 9.92101C5.77837 9.80672 4.72158 9.80672 3.69897 9.92101C3.04108 9.99454 2.5091 10.5126 2.43152 11.1759C2.3092 12.2217 2.3092 13.2783 2.43152 14.3241C2.5091 14.9874 3.04108 15.5055 3.69897 15.579C4.72159 15.6933 5.77837 15.6933 6.80099 15.579C7.45887 15.5055 7.99085 14.9874 8.06843 14.3241C8.19075 13.2783 8.19075 12.2217 8.06843 11.1759C7.99085 10.5126 7.45887 9.99454 6.80099 9.92101Z" fill="white"/>
<path d="M14.301 2.42102C13.2784 2.30672 12.2216 2.30672 11.199 2.42102C10.5411 2.49454 10.0091 3.01261 9.93153 3.67594C9.80921 4.72175 9.80921 5.77826 9.93153 6.82407C10.0091 7.4874 10.5411 8.00546 11.199 8.07899C12.2216 8.19328 13.2784 8.19328 14.301 8.07899C14.9589 8.00546 15.4909 7.4874 15.5684 6.82407C15.6908 5.77826 15.6908 4.72175 15.5684 3.67594C15.4909 3.01261 14.9589 2.49454 14.301 2.42102Z" fill="white"/>
<path d="M14.301 9.92101C13.2784 9.80672 12.2216 9.80672 11.199 9.92101C10.5411 9.99454 10.0091 10.5126 9.93153 11.1759C9.80921 12.2217 9.80921 13.2783 9.93153 14.3241C10.0091 14.9874 10.5411 15.5055 11.199 15.579C12.2216 15.6933 13.2784 15.6933 14.301 15.579C14.9589 15.5055 15.4909 14.9874 15.5684 14.3241C15.6908 13.2783 15.6908 12.2217 15.5684 11.1759C15.4909 10.5126 14.9589 9.99454 14.301 9.92101Z" fill="white"/>
</svg>
