<svg width="30" height="30" viewBox="0 0 30 30" fill="none" xmlns="http://www.w3.org/2000/svg">
<path fill-rule="evenodd" clip-rule="evenodd" d="M8.15566 17.3921C9.39702 20.9556 13.2037 23.001 16.901 21.9964C20.765 20.9464 23.0462 16.963 21.9963 13.099C21.1552 10.0034 18.4306 7.92318 15.3936 7.7586C15.8795 8.38835 16.2525 9.12181 16.4738 9.9364C17.3789 13.2674 15.4123 16.7014 12.0813 17.6065C10.7311 17.9734 9.36392 17.8681 8.15566 17.3921ZM17.2943 23.4439C12.6309 24.711 7.82329 21.9578 6.55615 17.2944C6.43825 16.8605 6.3551 16.4249 6.30513 15.9906C6.27056 15.6902 6.41977 15.3984 6.68357 15.2506C6.94737 15.1028 7.27413 15.1278 7.51231 15.3142C8.65379 16.2071 10.1846 16.5675 11.688 16.159C14.2196 15.4711 15.7142 12.8613 15.0263 10.3297C14.7289 9.23517 14.0736 8.33596 13.2198 7.72158C12.9745 7.54504 12.8592 7.2385 12.9272 6.94401C12.9952 6.64953 13.2334 6.42466 13.5313 6.37361C17.9241 5.62077 22.2514 8.31709 23.4438 12.7057C24.711 17.3691 21.9577 22.1767 17.2943 23.4439Z" fill="#091E55"/>
</svg>
