<svg width="24" height="25" viewBox="0 0 24 25" fill="none" xmlns="http://www.w3.org/2000/svg">
<path d="M6 10.9375C5.17157 10.9375 4.5 11.6371 4.5 12.5C4.5 13.3629 5.17157 14.0625 6 14.0625C6.82843 14.0625 7.5 13.3629 7.5 12.5C7.5 11.6371 6.82843 10.9375 6 10.9375Z" fill="#091E55"/>
<path d="M10.5 12.5C10.5 11.6371 11.1716 10.9375 12 10.9375C12.8284 10.9375 13.5 11.6371 13.5 12.5C13.5 13.3629 12.8284 14.0625 12 14.0625C11.1716 14.0625 10.5 13.3629 10.5 12.5Z" fill="#091E55"/>
<path d="M16.5 12.5C16.5 11.6371 17.1716 10.9375 18 10.9375C18.8284 10.9375 19.5 11.6371 19.5 12.5C19.5 13.3629 18.8284 14.0625 18 14.0625C17.1716 14.0625 16.5 13.3629 16.5 12.5Z" fill="#091E55"/>
</svg>
