<svg width="16" height="16" viewBox="0 0 16 16" fill="none" xmlns="http://www.w3.org/2000/svg">
<path d="M8.97978 5.0202C9.17504 5.21546 9.49163 5.21546 9.68689 5.0202L10.1667 4.54042L10.1667 11.3333C10.1667 11.6095 10.3905 11.8333 10.6667 11.8333C10.9428 11.8333 11.1667 11.6095 11.1667 11.3333L11.1667 4.54042L11.6464 5.0202C11.8417 5.21546 12.1583 5.21546 12.3536 5.0202C12.5488 4.82494 12.5488 4.50835 12.3536 4.31309L11.0202 2.97976C10.825 2.7845 10.5084 2.7845 10.3131 2.97976L8.97978 4.31309C8.78452 4.50836 8.78452 4.82494 8.97978 5.0202Z" fill="#091E55"/>
<path d="M5.83333 11.4595L6.31311 10.9798C6.50838 10.7845 6.82496 10.7845 7.02022 10.9798C7.21548 11.175 7.21548 11.4916 7.02022 11.6869L5.68689 13.0202C5.49162 13.2155 5.17504 13.2155 4.97978 13.0202L3.64645 11.6869C3.45118 11.4916 3.45118 11.175 3.64645 10.9798C3.84171 10.7845 4.15829 10.7845 4.35355 10.9798L4.83333 11.4595L4.83333 4.66665C4.83333 4.3905 5.05719 4.16665 5.33333 4.16665C5.60948 4.16665 5.83333 4.3905 5.83333 4.66665L5.83333 11.4595Z" fill="#091E55"/>
</svg>
