<svg width="18" height="18" viewBox="0 0 18 18" fill="none" xmlns="http://www.w3.org/2000/svg">
<path d="M9.77923 2.68646C9.32962 2.4518 8.71204 2.44828 8.25929 2.68211C6.32531 3.68091 4.5728 4.82528 3.03833 6.09324C2.83371 6.26232 2.6983 6.49897 2.70061 6.76946C2.70292 7.03902 2.84141 7.27303 3.04536 7.43979C4.56748 8.68437 6.32197 9.83009 8.22079 10.8211C8.6704 11.0558 9.28798 11.0593 9.74074 10.8255C11.6747 9.82667 13.4272 8.6823 14.9617 7.41435C15.1663 7.24527 15.3017 7.00862 15.2994 6.73813C15.2971 6.46857 15.1586 6.23455 14.9547 6.06779C13.4325 4.82321 11.6781 3.67749 9.77923 2.68646Z" fill="white"/>
<path d="M15.7185 10.2986C15.9821 10.1341 16.0623 9.78709 15.8978 9.52357C15.7333 9.26005 15.3863 9.17979 15.1227 9.34431L10.5423 12.204C10.1343 12.4587 9.57997 12.6007 8.99988 12.6008C8.41979 12.6008 7.8654 12.4588 7.45729 12.2041L2.92704 9.37684C2.66349 9.21236 2.31651 9.29267 2.15203 9.55622C1.98755 9.81976 2.06787 10.1667 2.33141 10.3312L6.86166 13.1585C7.4833 13.5465 8.25449 13.7258 8.99995 13.7258C9.7454 13.7257 10.5165 13.5463 11.1381 13.1583L15.7185 10.2986Z" fill="white"/>
<path d="M15.7186 13.1146C15.9821 12.9501 16.0623 12.6031 15.8977 12.3396C15.7332 12.0761 15.3862 11.9958 15.1227 12.1604L11.156 14.6375C10.5764 14.9995 9.801 15.1952 8.99985 15.1952C8.1987 15.1953 7.42326 14.9997 6.84349 14.6378L2.9271 12.1929C2.66357 12.0284 2.31658 12.1087 2.15207 12.3722C1.98756 12.6357 2.06783 12.9827 2.33135 13.1472L6.24775 15.5921C7.04109 16.0873 8.03338 16.3203 8.99991 16.3202C9.96644 16.3202 10.9587 16.0871 11.7519 15.5918L15.7186 13.1146Z" fill="white"/>
</svg>
