<svg width="18" height="18" viewBox="0 0 18 18" fill="none" xmlns="http://www.w3.org/2000/svg">
<path fill-rule="evenodd" clip-rule="evenodd" d="M9.2665 2.47632C9.0839 2.4245 8.89129 2.42455 8.70867 2.47652C8.31982 2.58718 7.92728 2.68967 7.5334 2.79251C5.77565 3.25145 3.84027 3.75678 2.18469 5.10778L1.40411 5.74476C0.781655 6.2527 0.781983 7.24745 1.40498 7.75488L2.17293 8.38037C2.74028 8.84246 3.33156 9.20393 3.9375 9.49872V12.9704C3.9375 13.8204 4.45892 14.5833 5.25083 14.8921L8.25083 16.0617C8.73262 16.2495 9.26738 16.2495 9.74917 16.0617L12.7492 14.8921C13.5411 14.5833 14.0625 13.8204 14.0625 12.9704V9.50494C14.6644 9.21172 15.2518 8.85208 15.8153 8.39222L15.9375 8.29251V12C15.9375 12.3107 16.1893 12.5625 16.5 12.5625C16.8107 12.5625 17.0625 12.3107 17.0625 12V6.75C17.0624 6.37439 16.9065 5.99884 16.595 5.74512L15.8271 5.11963C14.1594 3.76137 12.1427 3.23539 10.4394 2.79115C10.0464 2.68864 9.65465 2.58647 9.2665 2.47632ZM6.22436 9.60918C5.93948 9.48527 5.60809 9.61577 5.48418 9.90065C5.36028 10.1855 5.49077 10.5169 5.77565 10.6408C6.73404 11.0577 7.72611 11.3987 8.7428 11.6596C8.91996 11.7051 9.1058 11.7051 9.28299 11.6595C10.2969 11.3985 11.2861 11.0574 12.2414 10.6406C12.5261 10.5163 12.6562 10.1848 12.532 9.90003C12.4077 9.6153 12.0762 9.4852 11.7915 9.60945C10.894 10.0011 9.9649 10.3217 9.01254 10.5674C8.05725 10.3217 7.12503 10.0009 6.22436 9.60918Z" fill="white"/>
</svg>
