<svg width="18" height="18" viewBox="0 0 18 18" fill="none" xmlns="http://www.w3.org/2000/svg">
<path d="M9 2.8125C7.4467 2.8125 6.1875 4.0717 6.1875 5.625C6.1875 7.1783 7.4467 8.4375 9 8.4375C10.5533 8.4375 11.8125 7.1783 11.8125 5.625C11.8125 4.0717 10.5533 2.8125 9 2.8125Z" fill="white"/>
<path d="M6 9.9375C4.4467 9.9375 3.1875 11.1967 3.1875 12.75V13.6412C3.1875 14.2061 3.59691 14.6878 4.15445 14.7788C7.36357 15.3028 10.6364 15.3028 13.8455 14.7788C14.4031 14.6878 14.8125 14.2061 14.8125 13.6412V12.75C14.8125 11.1967 13.5533 9.9375 12 9.9375H11.7443C11.606 9.9375 11.4685 9.95938 11.3369 10.0023L10.6878 10.2143C9.5911 10.5724 8.4089 10.5724 7.31219 10.2143L6.66305 10.0023C6.53152 9.95938 6.39402 9.9375 6.25565 9.9375H6Z" fill="white"/>
</svg>
